HIERARCHY
ROOT Hips
{
	OFFSET 0.000000 0.000000 0.000000
	CHANNELS 6 Xposition Yposition Zposition Zrotation Yrotation Xrotation 
	JOINT LHipJoint
	{
		OFFSET 0.000000 0.000000 0.000000
		CHANNELS 3 Zrotation Yrotation Xrotation
		JOINT LeftUpLeg
		{
			OFFSET 1.363060 -1.794630 0.839290
			CHANNELS 3 Zrotation Yrotation Xrotation
			JOINT LeftLeg
			{
				OFFSET 2.448110 -6.726130 0.000000
				CHANNELS 3 Zrotation Yrotation Xrotation
				JOINT LeftFoot
				{
					OFFSET 2.562200 -7.039590 0.000000
					CHANNELS 3 Zrotation Yrotation Xrotation
					JOINT LeftToeBase
					{
						OFFSET 0.157640 -0.433110 2.322550
						CHANNELS 3 Zrotation Yrotation Xrotation
						End Site
						{
							OFFSET 0.000000 0.000000 0.000000
						}
					}
				}
			}
		}
	}
	JOINT RHipJoint
	{
		OFFSET 0.000000 0.000000 0.000000
		CHANNELS 3 Zrotation Yrotation Xrotation
		JOINT RightUpLeg
		{
			OFFSET -1.305520 -1.794630 0.839290
			CHANNELS 3 Zrotation Yrotation Xrotation
			JOINT RightLeg
			{
				OFFSET -2.542530 -6.985550 0.000000
				CHANNELS 3 Zrotation Yrotation Xrotation
				JOINT RightFoot
				{
					OFFSET -2.568260 -7.056230 0.000000
					CHANNELS 3 Zrotation Yrotation Xrotation
					JOINT RightToeBase
					{
						OFFSET -0.164730 -0.452590 2.363150
						CHANNELS 3 Zrotation Yrotation Xrotation
						End Site
						{
							OFFSET 0.000000 0.000000 0.000000
						}
					}
				}
			}
		}
	}
}
MOTION
Frames: 22
Frame Time: 0.008333
2.949518 16.849141 0.891473 -171.934782 -37.298007 -159.344417 -11.389394 1.175443 -6.036065 -1.468214 45.832108 -20.589566 -4.132469 0.108501 1.490184 2.557103 20.475110 10.234350 6.051700 0.000000 -62.558500 9.363484 0.944953 6.896872 -1.569109 15.462002 -45.626076 3.059521 0.374534 7.028914 2.129419 11.597254 17.035450 4.049900 -0.000000 -78.726001
2.946868 16.842808 0.863223 -171.984836 -37.131229 -159.206605 -11.385548 1.191169 -5.985305 -1.545526 45.762754 -20.543724 -4.107004 0.082559 1.348559 2.590753 20.792464 10.322728 6.196600 0.000000 -62.405500 9.322356 0.885650 7.114839 -1.917846 16.050335 -45.980611 2.966387 0.353323 7.316718 2.071272 11.066902 16.768162 3.788800 0.000000 -78.611099
2.944550 16.839881 0.834733 -172.075935 -37.033784 -159.059032 -11.388364 1.209728 -5.910516 -1.631642 45.571004 -20.502342 -4.065164 0.056296 1.234060 2.634583 21.182483 10.456761 6.386600 0.000000 -62.234500 9.284323 0.824323 7.310900 -2.266573 16.555410 -46.255393 2.877864 0.340883 7.516696 2.011622 10.545452 16.539700 3.540101 -0.000000 -78.502500
2.942613 16.840032 0.807258 -172.198062 -37.007568 -158.915577 -11.399835 1.228217 -5.821121 -1.710805 45.284955 -20.460065 -4.010949 0.032142 1.150878 2.685196 21.614706 10.624528 6.607600 -0.000000 -62.056200 9.248546 0.765211 7.474869 -2.598461 16.970092 -46.439351 2.796241 0.336181 7.643639 1.951580 10.038266 16.343836 3.303700 -0.000000 -78.403800
2.940908 16.843028 0.781455 -172.344166 -37.052172 -158.784131 -11.421112 1.245027 -5.721851 -1.772157 44.925265 -20.414087 -3.947236 0.011321 1.098077 2.739953 22.066435 10.818911 6.849500 0.000000 -61.880000 9.214516 0.710452 7.601923 -2.898598 17.291070 -46.527755 2.723472 0.338357 7.709256 1.892222 9.548755 16.176399 3.079300 0.000001 -78.313901
2.939106 16.848597 0.757748 -172.502378 -37.168127 -158.673213 -11.451008 1.258566 -5.615697 -1.808696 44.505656 -20.362743 -3.875677 -0.005856 1.072071 2.797084 22.522739 11.034845 7.105501 -0.000000 -61.706800 9.182962 0.661381 7.690552 -3.156054 17.519651 -46.522065 2.660644 0.346285 7.723022 1.834105 9.078056 16.034858 2.866401 0.000000 -78.229999
2.936785 16.856416 0.736203 -172.664442 -37.350310 -158.586172 -11.489714 1.267827 -5.504107 -1.813610 44.040364 -20.305198 -3.797925 -0.019261 1.069488 2.854992 22.971015 11.268409 7.369599 -0.000000 -61.548100 9.152875 0.618003 7.741747 -3.360167 17.660065 -46.427479 2.608975 0.358978 7.695242 1.778108 8.628487 15.916479 2.665100 0.000000 -78.146800
2.933967 16.866057 0.716734 -172.825305 -37.593050 -158.525849 -11.534744 1.272006 -5.389317 -1.783615 43.540778 -20.239937 -3.715357 -0.029216 1.088201 2.912464 23.403751 11.514657 7.637100 0.000001 -61.413100 9.124879 0.580121 7.758337 -3.506786 17.720133 -46.255169 2.567931 0.374762 7.638741 1.724607 8.201977 15.815655 2.475300 -0.000000 -78.060600
2.930588 16.876883 0.699170 -172.976657 -37.889191 -158.493452 -11.583178 1.270533 -5.273340 -1.717050 43.017449 -20.166241 -3.629477 -0.036240 1.128918 2.968367 23.814592 11.765437 7.902199 0.000000 -61.294800 9.099540 0.546674 7.745346 -3.597412 17.711876 -46.020227 2.536083 0.391894 7.567089 1.673494 7.798386 15.724820 2.296300 0.000000 -77.970300
2.926948 16.888310 0.683184 -173.118064 -38.228260 -158.486899 -11.632018 1.263495 -5.158202 -1.615687 42.480932 -20.084508 -3.541948 -0.040832 1.193009 3.021698 24.199176 12.013418 8.160000 0.000000 -61.200100 9.077267 0.516381 7.708888 -3.637850 17.649123 -45.740339 2.511110 0.408455 7.495692 1.624575 7.417998 15.635427 2.127800 0.000000 -77.875301
2.923392 16.899637 0.668472 -173.249543 -38.599042 -158.503295 -11.678772 1.251796 -5.045363 -1.484911 41.938916 -19.994089 -3.453924 -0.043822 1.280008 3.072071 24.558516 12.252804 8.408100 -0.000000 -61.134000 9.058386 0.487914 7.655686 -3.638076 17.545464 -45.436007 2.490281 0.422392 7.442588 1.577665 7.062338 15.536046 1.969601 -0.000000 -77.775900
2.920259 16.910318 0.654645 -173.371826 -38.990769 -158.538183 -11.720766 1.236270 -4.936307 -1.332002 41.399527 -19.897341 -3.366873 -0.045815 1.390779 3.119142 24.893124 12.476344 8.643200 -0.000000 -61.092500 9.043174 0.460014 7.593245 -3.611641 17.417961 -45.126861 2.470445 0.432176 7.421768 1.531936 6.728149 15.416827 1.820300 0.000000 -77.675400
2.918082 16.919865 0.641283 -173.491497 -39.392432 -158.584474 -11.755812 1.218235 -4.832224 -1.166392 40.869202 -19.796479 -3.282057 -0.047463 1.523567 3.162881 25.206135 12.679468 8.864100 0.000000 -61.076199 9.032091 0.431859 7.528369 -3.573527 17.281643 -44.831484 2.448262 0.436404 7.446799 1.486495 6.411823 15.269040 1.678100 0.000001 -77.576200
2.916974 16.927940 0.628119 -173.607810 -39.795385 -158.636991 -11.782658 1.198404 -4.734035 -0.997261 40.354695 -19.696573 -3.200770 -0.049236 1.676866 3.203355 25.499007 12.855216 9.068400 -0.000000 -61.056600 9.024755 0.402697 7.467542 -3.538581 17.153305 -44.564328 2.421119 0.434627 7.524537 1.439949 6.104787 15.086997 1.539800 0.000000 -77.482800
2.917333 16.934368 0.614945 -173.727760 -40.191154 -158.691437 -11.801683 1.178012 -4.643360 -0.831723 39.864418 -19.596047 -3.123873 -0.051681 1.841994 3.240763 25.775927 13.004609 9.257300 -0.000000 -61.034500 9.020245 0.372180 7.415381 -3.519445 17.047609 -44.333100 2.386671 0.426630 7.660035 1.390981 5.798556 14.867317 1.401900 -0.000001 -77.398699
2.919000 16.939020 0.601737 -173.849440 -40.580978 -158.743262 -11.811655 1.157202 -4.559584 -0.680960 39.398988 -19.505026 -3.051890 -0.055279 2.017693 3.275970 26.042495 13.122785 9.431100 -0.000000 -61.013399 9.019311 0.340714 7.373740 -3.521479 16.964933 -44.150757 2.343970 0.411534 7.865431 1.339434 5.494202 14.603487 1.265199 -0.000000 -77.320900
2.922119 16.941971 0.588426 -173.977618 -40.963094 -158.790267 -11.813446 1.136203 -4.484446 -0.549188 38.969886 -19.427329 -2.986411 -0.059792 2.200715 3.308617 26.295906 13.208490 9.587300 -0.000000 -60.987900 9.020968 0.308446 7.344002 -3.548897 16.911431 -44.017024 2.292359 0.389872 8.139938 1.284273 5.183721 14.296915 1.127000 0.000000 -77.249201
2.926349 16.943392 0.575398 -174.107053 -41.338409 -158.838188 -11.810370 1.114752 -4.419051 -0.434727 38.582933 -19.356380 -2.926959 -0.065748 2.375929 3.339296 26.539708 13.263936 9.727900 0.000000 -60.929299 9.022786 0.275606 7.325395 -3.603052 16.893138 -43.920708 2.232433 0.363161 8.472890 1.224244 4.856485 13.954593 0.983800 0.000000 -77.188500
2.931562 16.943459 0.562849 -174.238184 -41.713353 -158.888508 -11.803318 1.092500 -4.363154 -0.339328 38.240739 -19.295939 -2.873672 -0.073103 2.539519 3.368426 26.775427 13.289896 9.853199 -0.000000 -60.843800 9.024671 0.243096 7.314954 -3.677144 16.900665 -43.857184 2.165622 0.331810 8.863159 1.159728 4.514768 13.579121 0.837200 -0.000001 -77.133699
2.937339 16.942420 0.551014 -174.367371 -42.093905 -158.944636 -11.794328 1.069029 -4.316713 -0.261545 37.949556 -19.248997 -2.827173 -0.081523 2.688355 3.395661 26.998130 13.287026 9.960900 -0.000000 -60.734100 9.025617 0.211345 7.309545 -3.762223 16.925363 -43.815951 2.094170 0.296931 9.303023 1.091212 4.159877 13.176884 0.688400 -0.000000 -77.082800
2.943546 16.940536 0.540124 -174.494311 -42.486598 -159.010427 -11.785023 1.044325 -4.278258 -0.198761 37.705822 -19.213274 -2.786466 -0.091131 2.815861 3.421581 27.210535 13.258726 10.053399 0.000000 -60.597700 9.025427 0.181272 7.305003 -3.848080 16.954721 -43.785641 2.020522 0.259598 9.782485 1.019543 3.795540 12.755044 0.539500 -0.000000 -77.034100
2.949688 16.938017 0.530394 -174.613479 -42.897155 -159.089988 -11.777269 1.018251 -4.246526 -0.147499 37.511009 -19.190616 -2.751644 -0.101492 2.921227 3.445677 27.406389 13.207779 10.128300 0.000000 -60.439100 9.023551 0.153270 7.297688 -3.923042 16.975804 -43.754955 1.947746 0.221027 10.290432 0.946066 3.427834 12.321079 0.393200 0.000001 -76.985200
